<?xml version="1.0" standalone="no"?>
<!DOCTYPE svg PUBLIC "-//W3C//DTD SVG 20010904//EN"
 "http://www.w3.org/TR/2001/REC-SVG-20010904/DTD/svg10.dtd">
<svg version="1.0" xmlns="http://www.w3.org/2000/svg"
 width="513.000000pt" height="513.000000pt" viewBox="0 0 513.000000 513.000000"
 preserveAspectRatio="xMidYMid meet">
<metadata>
Created by potrace 1.14, written by Peter Selinger 2001-2017
</metadata>
<g transform="translate(0.000000,513.000000) scale(0.100000,-0.100000)"
fill="#000000" stroke="none">
<path d="M455 5122 c-213 -23 -400 -190 -444 -397 -7 -34 -10 -725 -10 -2165
1 -2310 -3 -2158 59 -2285 55 -114 198 -226 326 -256 57 -13 364 -19 364 -6 0
4 6 5 12 0 18 -10 1328 -10 1328 1 0 5 6 4 13 -1 15 -11 147 -11 165 0 6 5 12
5 12 0 0 -10 421 -10 437 0 6 4 14 4 16 0 6 -10 258 -10 274 0 6 4 14 4 16 0
7 -10 128 -10 145 0 6 5 12 5 12 0 0 -10 226 -10 236 0 4 3 14 3 23 -1 20 -10
102 -9 119 1 6 5 12 5 12 0 0 -10 296 -10 306 -1 4 4 14 4 23 0 27 -14 780 -7
831 7 77 21 80 22 75 32 -3 5 1 6 9 3 19 -7 108 51 167 111 52 52 102 143 124
224 12 45 14 377 14 2170 0 1339 -3 2133 -9 2161 -13 58 -60 170 -71 170 -5 0
-9 6 -9 13 -1 18 -69 89 -80 82 -6 -3 -7 0 -5 7 5 13 -52 55 -67 50 -5 -1 -8
2 -8 8 0 12 -73 44 -140 60 -45 11 -446 14 -2150 14 -1152 1 -2108 0 -2125 -2z"/>
</g>
</svg>
